<svg id="Layer_1" data-name="Layer 1" xmlns="http://www.w3.org/2000/svg" viewBox="0 0 496 512"><defs><style>.cls-1{fill:#fff;}</style></defs><path d="M261.73,402.28c-.69.05-1.38.08-2.07.08a28,28,0,0,1-21.34-9.89L130.38,265.12a28,28,0,1,1,42.7-36.19l83.08,98,178.23-287a32.45,32.45,0,0,0-5.87-.54H62.92a32.5,32.5,0,0,0-32.5,32.5V449.47A32.5,32.5,0,0,0,62.92,482h365.6a32.5,32.5,0,0,0,32.5-32.5V103.16l-177.58,286A28,28,0,0,1,261.73,402.28Z"/><path d="M483,14.64a28,28,0,0,0-38.54,9l-10.1,16.26a32.5,32.5,0,0,1,26.63,32v31.28l31-50A28,28,0,0,0,483,14.64Z"/><path class="cls-1" d="M434.39,39.92,256.16,327l-83.08-98a28,28,0,1,0-42.7,36.19L238.32,392.47a28,28,0,0,0,21.34,9.89c.69,0,1.38,0,2.07-.08a28,28,0,0,0,21.71-13.15L461,103.16V71.88A32.5,32.5,0,0,0,434.39,39.92Z"/></svg>