<svg id="Layer_1" data-name="Layer 1" xmlns="http://www.w3.org/2000/svg" viewBox="0 0 496 512"><defs><style>.cls-1{fill:#fff;}</style></defs><circle cx="248.36" cy="256" r="220.7"/><path class="cls-1" d="M324.61,225.24h-9.39a7.53,7.53,0,0,1-7.53-7.52V196.67a7.52,7.52,0,0,0-7.52-7.52H278.93a7.53,7.53,0,0,1-7.52-7.53v-9.77a7.52,7.52,0,0,1,7.52-7.52h21.24a7.52,7.52,0,0,0,7.52-7.53V135.57a7.53,7.53,0,0,1,7.53-7.53h9.39a7.53,7.53,0,0,1,7.53,7.53V156.8a7.52,7.52,0,0,0,7.52,7.53h21.42a7.53,7.53,0,0,1,7.53,7.52v9.77a7.53,7.53,0,0,1-7.53,7.53H339.66a7.52,7.52,0,0,0-7.52,7.52v21.05A7.53,7.53,0,0,1,324.61,225.24Z"/><path class="cls-1" d="M210.91,340.73H139q-6.83,0-10.38-3.72a13.32,13.32,0,0,1-3.55-9.59,13.66,13.66,0,0,1,3.46-9.71Q132,314,139,314h71.92q7,0,10.47,3.72a15.27,15.27,0,0,1,.05,19.3Q218,340.73,210.91,340.73Z"/><path class="cls-1" d="M187.1,223.64l-16.23-23.85-16.64,23.85a42.42,42.42,0,0,1-6.11,7.14,9.43,9.43,0,0,1-6.35,2.13,10.54,10.54,0,0,1-7.26-2.67,8,8,0,0,1-3-6.11c0-2.34,1.53-5.71,4.59-10.08l20.25-29-18-24.18q-4.68-6-4.67-10.42a7.83,7.83,0,0,1,2.78-6,10.43,10.43,0,0,1,7.3-2.54,9.7,9.7,0,0,1,6.52,2.21,41.36,41.36,0,0,1,6,7l14.51,19.84L185,151.09a38.4,38.4,0,0,1,6.11-7.05,9.78,9.78,0,0,1,6.44-2.13,10.83,10.83,0,0,1,7.33,2.5,7.69,7.69,0,0,1,2.91,6,10.53,10.53,0,0,1-1.19,4.88,37,37,0,0,1-3.64,5.54L185,185l20.25,29Q210,220.86,210,224.3a7.76,7.76,0,0,1-2.95,6.06,10.78,10.78,0,0,1-7.3,2.55,9.85,9.85,0,0,1-6.52-2.22A38,38,0,0,1,187.1,223.64Z"/><path class="cls-1" d="M368.63,327.46h0a12.41,12.41,0,0,1-12.41,12.41H283.84a12.41,12.41,0,0,1-12.41-12.41h0a12.41,12.41,0,0,1,12.41-12.41h72.38A12.41,12.41,0,0,1,368.63,327.46ZM320.13,303a11.76,11.76,0,0,1-6.4-1.94,15.52,15.52,0,0,1-5-5.11,12.07,12.07,0,0,1-1.94-6.3q0-6.35,4-9.9a14,14,0,0,1,18.71,0q4,3.61,4,9.86A13.58,13.58,0,0,1,320.13,303Zm0,75.51a11.66,11.66,0,0,1-6.45-2,16.31,16.31,0,0,1-5-5.11,11.94,11.94,0,0,1-1.89-6.3q0-6.26,4-9.81a14,14,0,0,1,18.71.05,12.44,12.44,0,0,1,4,9.76,13,13,0,0,1-3.93,9.42A12.68,12.68,0,0,1,320.13,378.52Z"/></svg>